<?xml version="1.0" encoding="UTF-8"?><svg id="Layer_2" xmlns="http://www.w3.org/2000/svg" xmlns:xlink="http://www.w3.org/1999/xlink" viewBox="0 0 1920 521"><defs><style>.cls-1{fill:url(#radial-gradient);stroke-width:0px;}</style><radialGradient id="radial-gradient" cx="960" cy="260.5" fx="960" fy="260.5" r="703.37" gradientUnits="userSpaceOnUse"><stop offset="0" stop-color="#000" stop-opacity="0"/><stop offset=".22" stop-color="#000" stop-opacity="0"/><stop offset="1" stop-color="#000" stop-opacity=".5"/></radialGradient></defs><g id="Layer_2-2"><path class="cls-1" d="M0,521v-159.82s9.75-10.55,9.75-17.95c0-7.41-6.33-7.23-5.78-14.62.51-6.92-2.4-6.56.92-13.46,3.27-6.81-3.13-10.23,3-15.57,6.12-5.34,12.34-.6,18.46-5.95,6.12-5.34-3.57-12.73,2.55-18.07,6.12-5.34,15.14,1.53,21.26-3.82,6.13-5.34-4.41-13.37,1.72-18.71,6.12-5.34,7.5-4.29,13.63-9.63,6.13-5.35,16.72,2.73,22.85-2.62,6.13-5.35.66-26.31,9.63-26.31,9.55,0,4.41,21.16,11.35,26.51,6.94,5.34,8.55,3.95,15.49,9.29,6.95,5.34,10.85,1.97,17.8,7.32,6.95,5.34,1.49,8.27,11.04,8.43,8.81.14,19.23,10.23,25.4,5.1,6.17-5.13-12.36-19.94-6.19-25.07,6.17-5.13,2.2-8.3,8.37-13.43,6.17-5.13,15.76,2.54,21.93-2.59,6.17-5.13,12.46-.1,18.63-5.23,6.17-5.13,5.81-5.42,11.98-10.55,6.17-5.13-10.86-18.74-4.69-23.87,6.17-5.13,30.16,14.04,36.33,8.91,6.17-5.13-10.49-18.44-4.32-23.58,6.17-5.13,18.13,4.42,24.3-.71,6.17-5.13-1.25-11.06,4.92-16.19,6.17-5.13-7.23-15.84-1.06-20.97,6.17-5.13,10.43-1.73,16.6-6.86,6.17-5.13,12.57-.01,18.74-5.14,6.17-5.13-2.81-12.31,3.36-17.44,6.17-5.13,15.24,2.11,21.41-3.02,6.17-5.13-.06-10.11,6.11-15.24,6.17-5.14,16.84,3.39,23.02-1.75,6.17-5.14.15-2.05,8.96-1.77,8.88.29,18.93-14.04,24.69-8.52,5.76,5.52-15.43,20.22-9.67,25.74,5.76,5.52,7.23,4.5,12.99,10.02,5.76,5.52,10.81,2.02,16.57,7.54,5.76,5.52,1.86,8.23,7.62,13.75,5.76,5.52,3.92,6.8,9.68,12.32,5.76,5.52,8.34,3.73,14.1,9.25,5.76,5.52-.12,9.59,5.64,15.11,5.76,5.52,7.8,4.1,13.56,9.62,5.76,5.52,13.33.27,19.09,5.79,5.76,5.52,18.18-3.1,23.94,2.42,5.76,5.52,4.3,6.54,10.06,12.06,5.76,5.52,4.92,6.11,10.68,11.63,5.76,5.52-10.06,16.5-4.3,22.02,5.76,5.52,21.22-5.2,26.98.32,5.76,5.52-14.7,19.72-8.94,25.24,5.76,5.52,8.65,3.52,14.41,9.04,5.76,5.52,28.37-10.16,34.13-4.64,5.76,5.52,6.25,5.19,12.01,10.71,5.76,5.52-12.14,17.94-6.38,23.47,5.76,5.52,17.7-2.76,23.47,2.76,5.77,5.53-10.43,16.76-4.67,22.29,5.77,5.53,10.88,7.37,19.78,7.59,9.09.22,16.79.86,23.24-4.36,6.45-5.23-10.73-19.33-4.27-24.56,6.45-5.23,26.72,11.4,33.17,6.17,6.45-5.23-13.91-21.94-7.46-27.17,6.45-5.23,14.67,1.52,21.13-3.71,6.45-5.23-3.96-13.77,2.49-19,6.45-5.23,9.04-3.1,15.5-8.33,6.46-5.23,2.58-8.41,9.03-13.64,6.45-5.23,27.18,11.78,33.63,6.55,6.46-5.23-16.48-24.05-10.02-29.28,6.46-5.23,16.67-7.12,25.77-7.01,9.19.12,15.01,5.49,21.39,10.89,6.38,5.39-4.27,13.77,2.11,19.16,6.38,5.39,6.3,5.46,12.68,10.85,6.38,5.39,9.55,2.9,15.93,8.3,6.38,5.39-6.09,15.2.29,20.59,6.38,5.39,27.98-11.6,34.37-6.21,6.38,5.39-16.76,23.6-10.38,28.99,6.38,5.39,23.96-8.43,30.34-3.04,6.38,5.39,13.87-.49,20.25,4.9,6.38,5.39,5.2,6.32,11.58,11.72,6.38,5.39,1.98,8.85,8.37,14.25,6.38,5.39,7.88,4.21,14.26,9.6,6.38,5.39,2.22,8.67,8.6,14.07,6.38,5.4,9.54,2.91,15.92,8.31,6.38,5.39-4.01,13.57,2.37,18.97,6.39,5.4-1.12,11.3,5.27,16.7,6.39,5.4,14.41,14.01,23.61,13.96,8.94-.05-2.52-23.11,3.4-28.57,5.92-5.46,2.42-7.98,8.35-13.44,5.92-5.46,25.48,8.64,31.4,3.18,5.92-5.46,1.63-8.56,7.55-14.02,5.92-5.46,14.08.42,20-5.04,5.92-5.46-15.65-21.02-9.73-26.48q5.92-5.46,11.84-10.93c5.92-5.46,11.5-1.44,17.42-6.9,5.92-5.46-3.71-12.4,2.22-17.86,5.92-5.46,27.15,9.84,33.07,4.38,5.92-5.46-9.88-16.85-3.96-22.31,5.92-5.46,28.34,10.7,34.26,5.24,5.92-5.46,3.64-7.1,9.57-12.57,5.92-5.46-19.85-24.04-13.93-29.5,5.92-5.46,13.53.02,19.45-5.44,5.92-5.46,18.01,3.26,23.94-2.21,5.92-5.46-2.68-11.67,3.24-17.13,5.92-5.46,5.53-5.75,11.45-11.21,5.92-5.46-3.87-12.52,2.06-17.98,5.92-5.46,6.27-5.22,12.19-10.68,5.92-5.46,20.46,5.02,26.38-.44,5.92-5.46,2.74-7.76,8.66-13.22,5.93-5.46.04-9.71,5.97-15.17,5.92-5.46,6.24-5.23,12.16-10.69,5.93-5.47,1.86-8.4,7.78-13.87,5.93-5.47,13.23-16.64,22.16-17.06,8.61-.4,10.79,16.17,16.98,21.07,6.19,4.9-6.88,15.87-.69,20.77,6.18,4.9,15.66-3.07,21.85,1.83,6.19,4.9,19.51-6.3,25.7-1.4,6.19,4.9,1.77,8.61,7.95,13.51,6.19,4.9,9.53,2.09,15.72,6.98,6.19,4.9-.28,10.34,5.91,15.24,6.19,4.9-3.09,3.88,5.51,3.33,9.1-.58.78,1.35,6.69-4.33,5.91-5.67,21.36,5.04,27.27-.63,5.91-5.67,7.48-4.58,13.4-10.25,5.91-5.67,3.7-7.2,9.61-12.88,5.91-5.67,9.33-3.3,15.24-8.97,5.91-5.67-16.18-20.98-10.26-26.65,5.91-5.67,8.79-3.68,14.7-9.35,5.91-5.67,16.08,1.37,21.99-4.3,5.91-5.67,9.56-3.14,15.47-8.82,5.91-5.67,1.38-8.82,7.29-14.49,5.91-5.67,13.21-.62,19.12-6.29,5.91-5.67,2.02-8.36,7.93-14.03,5.91-5.67-11.91-18.02-6-23.69,5.91-5.67,4.33-6.77,10.24-12.45,5.91-5.67,28.45,9.95,34.37,4.28,5.92-5.68-15.63-20.61-9.72-26.28,5.92-5.68,15.78,2.11,24.91,1.87,8.9-.23.14,5.32,6.14,10.69,6,5.37,12.75.35,18.75,5.72,6,5.37,8.63,3.41,14.63,8.78,6,5.37,4.41,6.55,10.41,11.92,6,5.37,1.56,8.66,7.56,14.03,6,5.37,1.73,8.54,7.73,13.91,6,5.37,3.95,6.89,9.95,12.26,6,5.37,12.5.54,18.5,5.91,6,5.37,13.5-.21,19.5,5.16,6,5.37,10.67,1.89,16.67,7.26,6,5.37,2.28,8.13,8.28,13.5,6,5.37-3.5,12.43,2.5,17.8,6,5.37,15.14-1.42,21.14,3.95,6,5.37-11.97,18.72-5.97,24.09,6,5.37,12.83.3,18.83,5.66,6,5.37,6.84,4.75,12.84,10.12,6,5.37,10.16,2.28,16.16,7.64,6,5.37,16.55-2.47,22.55,2.9,6,5.37-1.74,11.12,4.26,16.49,6,5.37,7.91,3.95,13.91,9.31,6,5.37,14.53-.97,20.53,4.4,6,5.37-10.14,17.36-4.14,22.74,6,5.37-.21,9.98,5.79,15.35,6,5.37,5.21,5.97,11.21,11.34,6,5.37,10.92-1.05,14.1,5.74,3.26,6.95,2.49,4.94,2.49,12.38s5.51,19.48,5.51,19.48v218.52H0Z"/></g></svg>