<?xml version="1.0" encoding="UTF-8"?>
<svg id="Layer_2" data-name="Layer 2" xmlns="http://www.w3.org/2000/svg" viewBox="0 0 1908 432">
  <defs>
    <style>
      .cls-1 {
        opacity: .9;
      }

      .cls-2 {
        opacity: .03;
      }

      .cls-3 {
        opacity: .05;
      }

      .cls-4 {
        opacity: .3;
      }

      .cls-5 {
        opacity: .4;
      }

      .cls-6 {
        opacity: .8;
      }

      .cls-7 {
        opacity: .2;
      }

      .cls-8 {
        opacity: .7;
      }

      .cls-9 {
        opacity: .6;
      }

      .cls-10 {
        opacity: .1;
      }

      .cls-11 {
        opacity: .5;
      }
    </style>
  </defs>
  <g id="Layer_2-2" data-name="Layer 2">
    <g>
      <rect y="396" width="36" height="36"/>
      <rect x="72" y="396" width="36" height="36"/>
      <rect x="144" y="396" width="36" height="36"/>
      <rect x="216" y="396" width="36" height="36"/>
      <rect x="288" y="396" width="36" height="36"/>
      <rect x="360" y="396" width="36" height="36"/>
      <rect x="432" y="396" width="36" height="36"/>
      <rect x="504" y="396" width="36" height="36"/>
      <rect x="576" y="396" width="36" height="36"/>
      <rect x="648" y="396" width="36" height="36"/>
      <rect x="720" y="396" width="36" height="36"/>
      <rect x="792" y="396" width="36" height="36"/>
      <rect x="864" y="396" width="36" height="36"/>
      <rect x="936" y="396" width="36" height="36"/>
      <rect x="1008" y="396" width="36" height="36"/>
      <rect x="1080" y="396" width="36" height="36"/>
      <rect x="1152" y="396" width="36" height="36"/>
      <rect x="1224" y="396" width="36" height="36"/>
      <rect x="1296" y="396" width="36" height="36"/>
      <rect x="1368" y="396" width="36" height="36"/>
      <rect x="1440" y="396" width="36" height="36"/>
      <rect x="1512" y="396" width="36" height="36"/>
      <rect x="1584" y="396" width="36" height="36"/>
      <rect x="1656" y="396" width="36" height="36"/>
      <rect x="1728" y="396" width="36" height="36"/>
      <rect x="1800" y="396" width="36" height="36"/>
      <rect x="1872" y="396" width="36" height="36"/>
      <rect class="cls-6" y="324" width="36" height="36"/>
      <rect class="cls-6" x="216" y="324" width="36" height="36"/>
      <rect class="cls-6" x="288" y="324" width="36" height="36"/>
      <rect class="cls-6" x="360" y="324" width="36" height="36"/>
      <rect class="cls-6" x="576" y="324" width="36" height="36"/>
      <rect class="cls-6" x="648" y="324" width="36" height="36"/>
      <rect class="cls-6" x="720" y="324" width="36" height="36"/>
      <rect class="cls-6" x="792" y="324" width="36" height="36"/>
      <rect class="cls-6" x="864" y="324" width="36" height="36"/>
      <rect class="cls-6" x="936" y="324" width="36" height="36"/>
      <rect class="cls-6" x="1008" y="324" width="36" height="36"/>
      <rect class="cls-6" x="1080" y="324" width="36" height="36"/>
      <rect class="cls-6" x="1152" y="324" width="36" height="36"/>
      <rect class="cls-6" x="1296" y="324" width="36" height="36"/>
      <rect class="cls-6" x="1368" y="324" width="36" height="36"/>
      <rect class="cls-6" x="1440" y="324" width="36" height="36"/>
      <rect class="cls-6" x="1584" y="324" width="36" height="36"/>
      <rect class="cls-6" x="1656" y="324" width="36" height="36"/>
      <rect class="cls-6" x="1728" y="324" width="36" height="36"/>
      <rect class="cls-6" x="1872" y="324" width="36" height="36"/>
      <rect class="cls-9" y="252" width="36" height="36"/>
      <rect class="cls-9" x="72" y="252" width="36" height="36"/>
      <rect class="cls-9" x="216" y="252" width="36" height="36"/>
      <rect class="cls-9" x="288" y="252" width="36" height="36"/>
      <rect class="cls-9" x="360" y="252" width="36" height="36"/>
      <rect class="cls-9" x="576" y="252" width="36" height="36"/>
      <rect class="cls-9" x="648" y="252" width="36" height="36"/>
      <rect class="cls-9" x="864" y="252" width="36" height="36"/>
      <rect class="cls-9" x="936" y="252" width="36" height="36"/>
      <rect class="cls-9" x="1152" y="252" width="36" height="36"/>
      <rect class="cls-9" x="1224" y="252" width="36" height="36"/>
      <rect class="cls-9" x="1296" y="252" width="36" height="36"/>
      <rect class="cls-9" x="1368" y="252" width="36" height="36"/>
      <rect class="cls-9" x="1440" y="252" width="36" height="36"/>
      <rect class="cls-9" x="1512" y="252" width="36" height="36"/>
      <rect class="cls-9" x="1584" y="252" width="36" height="36"/>
      <rect class="cls-9" x="1656" y="252" width="36" height="36"/>
      <rect class="cls-9" x="1728" y="252" width="36" height="36"/>
      <rect class="cls-9" x="1800" y="252" width="36" height="36"/>
      <rect class="cls-9" x="1872" y="252" width="36" height="36"/>
      <rect class="cls-1" x="36" y="360" width="36" height="36"/>
      <rect class="cls-1" x="108" y="360" width="36" height="36"/>
      <rect class="cls-1" x="252" y="360" width="36" height="36"/>
      <rect class="cls-1" x="324" y="360" width="36" height="36"/>
      <rect class="cls-1" x="396" y="360" width="36" height="36"/>
      <rect class="cls-1" x="468" y="360" width="36" height="36"/>
      <rect class="cls-1" x="540" y="360" width="36" height="36"/>
      <rect class="cls-1" x="612" y="360" width="36" height="36"/>
      <rect class="cls-1" x="684" y="360" width="36" height="36"/>
      <rect class="cls-1" x="756" y="360" width="36" height="36"/>
      <rect class="cls-1" x="828" y="360" width="36" height="36"/>
      <rect class="cls-1" x="900" y="360" width="36" height="36"/>
      <rect class="cls-1" x="972" y="360" width="36" height="36"/>
      <rect class="cls-1" x="1044" y="360" width="36" height="36"/>
      <rect class="cls-1" x="1116" y="360" width="36" height="36"/>
      <rect class="cls-1" x="1332" y="360" width="36" height="36"/>
      <rect class="cls-1" x="1404" y="360" width="36" height="36"/>
      <rect class="cls-1" x="1476" y="360" width="36" height="36"/>
      <rect class="cls-1" x="1548" y="360" width="36" height="36"/>
      <rect class="cls-1" x="1620" y="360" width="36" height="36"/>
      <rect class="cls-1" x="1692" y="360" width="36" height="36"/>
      <rect class="cls-8" x="36" y="288" width="36" height="36"/>
      <rect class="cls-8" x="108" y="288" width="36" height="36"/>
      <rect class="cls-8" x="180" y="288" width="36" height="36"/>
      <rect class="cls-8" x="252" y="288" width="36" height="36"/>
      <rect class="cls-8" x="324" y="288" width="36" height="36"/>
      <rect class="cls-11" x="828" y="216" width="36" height="36"/>
      <rect class="cls-4" x="756" y="144" width="36" height="36"/>
      <rect class="cls-4" x="828" y="144" width="36" height="36"/>
      <rect class="cls-5" x="720" y="180" width="36" height="36"/>
      <rect class="cls-5" x="792" y="180" width="36" height="36"/>
      <rect class="cls-5" x="864" y="180" width="36" height="36"/>
      <rect class="cls-8" x="540" y="288" width="36" height="36"/>
      <rect class="cls-8" x="612" y="288" width="36" height="36"/>
      <rect class="cls-8" x="828" y="288" width="36" height="36"/>
      <rect class="cls-8" x="900" y="288" width="36" height="36"/>
      <rect class="cls-8" x="1044" y="288" width="36" height="36"/>
      <rect class="cls-8" x="1116" y="288" width="36" height="36"/>
      <rect class="cls-8" x="1188" y="288" width="36" height="36"/>
      <rect class="cls-8" x="1332" y="288" width="36" height="36"/>
      <rect class="cls-8" x="1404" y="288" width="36" height="36"/>
      <rect class="cls-8" x="1476" y="288" width="36" height="36"/>
      <rect class="cls-8" x="1620" y="288" width="36" height="36"/>
      <rect class="cls-8" x="1692" y="288" width="36" height="36"/>
      <rect class="cls-8" x="1764" y="288" width="36" height="36"/>
      <rect class="cls-8" x="1836" y="288" width="36" height="36"/>
      <rect class="cls-11" x="36" y="216" width="36" height="36"/>
      <rect class="cls-11" x="108" y="216" width="36" height="36"/>
      <rect class="cls-11" x="180" y="216" width="36" height="36"/>
      <rect class="cls-11" x="612" y="216" width="36" height="36"/>
      <rect class="cls-11" x="972" y="216" width="36" height="36"/>
      <rect class="cls-11" x="1044" y="216" width="36" height="36"/>
      <rect class="cls-11" x="1116" y="216" width="36" height="36"/>
      <rect class="cls-11" x="1188" y="216" width="36" height="36"/>
      <rect class="cls-11" x="1260" y="216" width="36" height="36"/>
      <rect class="cls-11" x="1332" y="216" width="36" height="36"/>
      <rect class="cls-11" x="1404" y="216" width="36" height="36"/>
      <rect class="cls-11" x="1476" y="216" width="36" height="36"/>
      <rect class="cls-11" x="1620" y="216" width="36" height="36"/>
      <rect class="cls-11" x="1692" y="216" width="36" height="36"/>
      <rect class="cls-11" x="1764" y="216" width="36" height="36"/>
      <rect class="cls-11" x="1836" y="216" width="36" height="36"/>
      <rect class="cls-5" x="72" y="180" width="36" height="36"/>
      <rect class="cls-5" x="144" y="180" width="36" height="36"/>
      <rect class="cls-5" x="1008" y="180" width="36" height="36"/>
      <rect class="cls-5" x="1080" y="180" width="36" height="36"/>
      <rect class="cls-5" x="1152" y="180" width="36" height="36"/>
      <rect class="cls-5" x="1296" y="180" width="36" height="36"/>
      <rect class="cls-5" x="1368" y="180" width="36" height="36"/>
      <rect class="cls-5" x="1440" y="180" width="36" height="36"/>
      <rect class="cls-5" x="1512" y="180" width="36" height="36"/>
      <rect class="cls-5" x="1584" y="180" width="36" height="36"/>
      <rect class="cls-5" x="1656" y="180" width="36" height="36"/>
      <rect class="cls-5" x="1800" y="180" width="36" height="36"/>
      <rect class="cls-4" x="36" y="144" width="36" height="36"/>
      <rect class="cls-7" y="108" width="36" height="36"/>
      <rect class="cls-7" x="72" y="108" width="36" height="36"/>
      <rect class="cls-10" x="36" y="72" width="36" height="36"/>
      <rect class="cls-3" y="36" width="36" height="36"/>
      <rect class="cls-3" x="72" y="36" width="36" height="36"/>
      <rect class="cls-2" x="36" width="36" height="36"/>
      <rect class="cls-4" x="108" y="144" width="36" height="36"/>
      <rect class="cls-4" x="180" y="144" width="36" height="36"/>
      <rect class="cls-4" x="1188" y="144" width="36" height="36"/>
      <rect class="cls-4" x="1332" y="144" width="36" height="36"/>
      <rect class="cls-4" x="1548" y="144" width="36" height="36"/>
      <rect class="cls-4" x="1620" y="144" width="36" height="36"/>
      <rect class="cls-4" x="1692" y="144" width="36" height="36"/>
      <rect class="cls-4" x="1764" y="144" width="36" height="36"/>
      <rect class="cls-4" x="1836" y="144" width="36" height="36"/>
      <rect class="cls-7" x="1152" y="108" width="36" height="36"/>
      <rect class="cls-7" x="1224" y="108" width="36" height="36"/>
      <rect class="cls-7" x="1368" y="108" width="36" height="36"/>
      <rect class="cls-7" x="1584" y="108" width="36" height="36"/>
      <rect class="cls-7" x="1800" y="108" width="36" height="36"/>
      <rect class="cls-7" x="1872" y="108" width="36" height="36"/>
      <rect class="cls-10" x="1116" y="72" width="36" height="36"/>
      <rect class="cls-10" x="1188" y="72" width="36" height="36"/>
      <rect class="cls-10" x="1332" y="72" width="36" height="36"/>
      <rect class="cls-10" x="1548" y="72" width="36" height="36"/>
      <rect class="cls-10" x="1836" y="72" width="36" height="36"/>
      <rect class="cls-3" x="1224" y="36" width="36" height="36"/>
      <rect class="cls-3" x="1296" y="36" width="36" height="36"/>
      <rect class="cls-3" x="1512" y="36" width="36" height="36"/>
      <rect class="cls-3" x="1584" y="36" width="36" height="36"/>
      <rect class="cls-3" x="1800" y="36" width="36" height="36"/>
      <rect class="cls-3" x="1872" y="36" width="36" height="36"/>
      <rect class="cls-2" x="1332" width="36" height="36"/>
      <rect class="cls-2" x="1836" width="36" height="36"/>
    </g>
  </g>
</svg>