<svg xmlns="http://www.w3.org/2000/svg" version="1.1" viewBox="0 0 325 100"><defs><linearGradient x1="50%" y1="0%" x2="50%" y2="100%" id="ssspill-grad"><stop stop-color="#202d21" stop-opacity="1" offset="45%"></stop><stop stop-color="#548257" stop-opacity="1" offset="100%"></stop></linearGradient></defs><rect width="100%" height="100%" fill="#543f2c"></rect><g fill="url(#ssspill-grad)">
    <rect width="100%" height="40" fill="#202d21"></rect>

    <rect x="0" width="7.69%" height="87.0633451455658" rx="15"></rect>
      <rect x="50" width="7.69%" height="77.25280193181028" rx="15"></rect>
      <rect x="100" width="7.69%" height="73.23777695481378" rx="15"></rect>
      <rect x="150" width="7.69%" height="95.59664312850919" rx="15"></rect>
      <rect x="200" width="7.69%" height="73.54381290525946" rx="15"></rect>
      <rect x="250" width="7.69%" height="67.1121633958858" rx="15"></rect>
      <rect x="300" width="7.69%" height="89.85684430881386" rx="15"></rect>
  </g><g fill="#543f2c">
    <rect x="25" y="15.529806101477922" width="7.69%" height="60" rx="15"></rect>
      <rect x="75" y="4.933094900387187" width="7.69%" height="60" rx="15"></rect>
      <rect x="125" y="14.697389258639864" width="7.69%" height="60" rx="15"></rect>
      <rect x="175" y="2.5394327870326334" width="7.69%" height="60" rx="15"></rect>
      <rect x="225" y="19.883840787912177" width="7.69%" height="60" rx="15"></rect>
      <rect x="275" y="15.885795528349755" width="7.69%" height="60" rx="15"></rect>
  </g></svg>